<?xml version="1.0" standalone="no"?>
<svg xmlns:xlink="http://www.w3.org/1999/xlink" id="wave" style="transform:rotate(0deg); transition: 0.3s" viewBox="0 0 1440 100" preserveAspectRatio="none" version="1.1" xmlns="http://www.w3.org/2000/svg"><defs><linearGradient id="sw-gradient-0" x1="0" x2="0" y1="1" y2="0"><stop stop-color="rgba(255, 255, 255, 1)" offset="0%"/><stop stop-color="rgba(255, 255, 255, 1)" offset="100%"/></linearGradient></defs><path style="transform:translate(0, 0px); opacity:1" fill="url(#sw-gradient-0)" d="M0,30L80,25C160,20,320,10,480,20C640,30,800,60,960,61.7C1120,63,1280,37,1440,21.7C1600,7,1760,3,1920,8.3C2080,13,2240,27,2400,33.3C2560,40,2720,40,2880,38.3C3040,37,3200,33,3360,36.7C3520,40,3680,50,3840,53.3C4000,57,4160,53,4320,53.3C4480,53,4640,57,4800,58.3C4960,60,5120,60,5280,56.7C5440,53,5600,47,5760,45C5920,43,6080,47,6240,48.3C6400,50,6560,50,6720,46.7C6880,43,7040,37,7200,40C7360,43,7520,57,7680,63.3C7840,70,8000,70,8160,73.3C8320,77,8480,83,8640,86.7C8800,90,8960,90,9120,86.7C9280,83,9440,77,9600,73.3C9760,70,9920,70,10080,60C10240,50,10400,30,10560,28.3C10720,27,10880,43,11040,51.7C11200,60,11360,60,11440,60L11520,60L11520,100L11440,100C11360,100,11200,100,11040,100C10880,100,10720,100,10560,100C10400,100,10240,100,10080,100C9920,100,9760,100,9600,100C9440,100,9280,100,9120,100C8960,100,8800,100,8640,100C8480,100,8320,100,8160,100C8000,100,7840,100,7680,100C7520,100,7360,100,7200,100C7040,100,6880,100,6720,100C6560,100,6400,100,6240,100C6080,100,5920,100,5760,100C5600,100,5440,100,5280,100C5120,100,4960,100,4800,100C4640,100,4480,100,4320,100C4160,100,4000,100,3840,100C3680,100,3520,100,3360,100C3200,100,3040,100,2880,100C2720,100,2560,100,2400,100C2240,100,2080,100,1920,100C1760,100,1600,100,1440,100C1280,100,1120,100,960,100C800,100,640,100,480,100C320,100,160,100,80,100L0,100Z"/></svg>